<mxfile host="Electron" agent="Mozilla/5.0 (Windows NT 10.0; Win64; x64) AppleWebKit/537.36 (KHTML, like Gecko) draw.io/24.7.17 Chrome/128.0.6613.36 Electron/32.0.1 Safari/537.36" version="24.7.17">
  <diagram name="PÃ¡gina-1" id="x58IPrMM06CytVFe2Tmh">
    <mxGraphModel dx="3474" dy="1730" grid="1" gridSize="10" guides="1" tooltips="1" connect="1" arrows="1" fold="1" page="1" pageScale="1" pageWidth="827" pageHeight="1169" math="0" shadow="0">
      <root>
        <mxCell id="0" />
        <mxCell id="1" parent="0" />
        <mxCell id="ABrIxDX-F--y4pFHkyQc-5" style="edgeStyle=orthogonalEdgeStyle;rounded=0;orthogonalLoop=1;jettySize=auto;html=1;exitX=1;exitY=0.5;exitDx=0;exitDy=0;" edge="1" parent="1" source="ABrIxDX-F--y4pFHkyQc-1" target="ABrIxDX-F--y4pFHkyQc-7">
          <mxGeometry relative="1" as="geometry">
            <mxPoint x="460" y="190" as="targetPoint" />
          </mxGeometry>
        </mxCell>
        <mxCell id="ABrIxDX-F--y4pFHkyQc-13" style="edgeStyle=orthogonalEdgeStyle;rounded=0;orthogonalLoop=1;jettySize=auto;html=1;exitX=0;exitY=0.5;exitDx=0;exitDy=0;entryX=1;entryY=0.5;entryDx=0;entryDy=0;" edge="1" parent="1" source="ABrIxDX-F--y4pFHkyQc-1" target="ABrIxDX-F--y4pFHkyQc-12">
          <mxGeometry relative="1" as="geometry" />
        </mxCell>
        <mxCell id="ABrIxDX-F--y4pFHkyQc-1" value="Esperando seleccion de identificacion" style="rounded=1;whiteSpace=wrap;html=1;" vertex="1" parent="1">
          <mxGeometry x="210" y="160" width="120" height="60" as="geometry" />
        </mxCell>
        <mxCell id="ABrIxDX-F--y4pFHkyQc-3" style="edgeStyle=orthogonalEdgeStyle;rounded=0;orthogonalLoop=1;jettySize=auto;html=1;exitX=0.5;exitY=1;exitDx=0;exitDy=0;entryX=0.5;entryY=0;entryDx=0;entryDy=0;" edge="1" parent="1" source="ABrIxDX-F--y4pFHkyQc-2" target="ABrIxDX-F--y4pFHkyQc-1">
          <mxGeometry relative="1" as="geometry" />
        </mxCell>
        <mxCell id="ABrIxDX-F--y4pFHkyQc-2" value="" style="ellipse;whiteSpace=wrap;html=1;" vertex="1" parent="1">
          <mxGeometry x="250" y="50" width="40" height="40" as="geometry" />
        </mxCell>
        <mxCell id="ABrIxDX-F--y4pFHkyQc-4" value="se Selecciona &quot;nuevo votante&quot;/&lt;br&gt;Mostrar opciones" style="text;html=1;align=center;verticalAlign=middle;resizable=0;points=[];autosize=1;strokeColor=none;fillColor=none;" vertex="1" parent="1">
          <mxGeometry x="90" y="100" width="190" height="40" as="geometry" />
        </mxCell>
        <mxCell id="ABrIxDX-F--y4pFHkyQc-30" style="edgeStyle=orthogonalEdgeStyle;rounded=0;orthogonalLoop=1;jettySize=auto;html=1;exitX=0.5;exitY=1;exitDx=0;exitDy=0;entryX=1;entryY=0.5;entryDx=0;entryDy=0;" edge="1" parent="1" source="ABrIxDX-F--y4pFHkyQc-7" target="ABrIxDX-F--y4pFHkyQc-19">
          <mxGeometry relative="1" as="geometry" />
        </mxCell>
        <mxCell id="ABrIxDX-F--y4pFHkyQc-7" value="Esperando legajo" style="rounded=1;whiteSpace=wrap;html=1;" vertex="1" parent="1">
          <mxGeometry x="640" y="160" width="140" height="60" as="geometry" />
        </mxCell>
        <mxCell id="ABrIxDX-F--y4pFHkyQc-8" value="Se selecciona &quot;identificar por numero de alumno&quot;/&lt;br&gt;se habilitan el teclado virtual" style="text;html=1;align=center;verticalAlign=middle;resizable=0;points=[];autosize=1;strokeColor=none;fillColor=none;" vertex="1" parent="1">
          <mxGeometry x="340" y="150" width="290" height="40" as="geometry" />
        </mxCell>
        <mxCell id="ABrIxDX-F--y4pFHkyQc-10" value="&lt;span style=&quot;color: rgb(240, 240, 240); font-family: Helvetica; font-size: 12px; font-style: normal; font-variant-ligatures: normal; font-variant-caps: normal; font-weight: 400; letter-spacing: normal; orphans: 2; text-align: center; text-indent: 0px; text-transform: none; widows: 2; word-spacing: 0px; -webkit-text-stroke-width: 0px; white-space: nowrap; background-color: rgb(27, 29, 30); text-decoration-thickness: initial; text-decoration-style: initial; text-decoration-color: initial; display: inline !important; float: none;&quot;&gt;Se selecciona &quot;identificar por huella&quot;/&lt;/span&gt;&lt;br style=&quot;forced-color-adjust: none; border-color: rgb(0, 0, 0); color: rgb(240, 240, 240); font-family: Helvetica; font-size: 12px; font-style: normal; font-variant-ligatures: normal; font-variant-caps: normal; font-weight: 400; letter-spacing: normal; orphans: 2; text-align: center; text-indent: 0px; text-transform: none; widows: 2; word-spacing: 0px; -webkit-text-stroke-width: 0px; white-space: nowrap; background-color: rgb(27, 29, 30); text-decoration-thickness: initial; text-decoration-style: initial; text-decoration-color: initial;&quot;&gt;&lt;span style=&quot;color: rgb(240, 240, 240); font-family: Helvetica; font-size: 12px; font-style: normal; font-variant-ligatures: normal; font-variant-caps: normal; font-weight: 400; letter-spacing: normal; orphans: 2; text-align: center; text-indent: 0px; text-transform: none; widows: 2; word-spacing: 0px; -webkit-text-stroke-width: 0px; white-space: nowrap; background-color: rgb(27, 29, 30); text-decoration-thickness: initial; text-decoration-style: initial; text-decoration-color: initial; display: inline !important; float: none;&quot;&gt;se habilitan lector de huella&lt;/span&gt;" style="text;whiteSpace=wrap;html=1;" vertex="1" parent="1">
          <mxGeometry x="-60" y="150" width="300" height="50" as="geometry" />
        </mxCell>
        <mxCell id="ABrIxDX-F--y4pFHkyQc-29" style="edgeStyle=orthogonalEdgeStyle;rounded=0;orthogonalLoop=1;jettySize=auto;html=1;exitX=0.5;exitY=1;exitDx=0;exitDy=0;entryX=0;entryY=0.5;entryDx=0;entryDy=0;" edge="1" parent="1" source="ABrIxDX-F--y4pFHkyQc-12" target="ABrIxDX-F--y4pFHkyQc-19">
          <mxGeometry relative="1" as="geometry" />
        </mxCell>
        <mxCell id="ABrIxDX-F--y4pFHkyQc-12" value="Esperando huella" style="rounded=1;whiteSpace=wrap;html=1;" vertex="1" parent="1">
          <mxGeometry x="-190" y="160" width="120" height="60" as="geometry" />
        </mxCell>
        <mxCell id="ABrIxDX-F--y4pFHkyQc-43" style="edgeStyle=orthogonalEdgeStyle;rounded=0;orthogonalLoop=1;jettySize=auto;html=1;exitX=0.5;exitY=1;exitDx=0;exitDy=0;entryX=0.5;entryY=0;entryDx=0;entryDy=0;" edge="1" parent="1" source="ABrIxDX-F--y4pFHkyQc-19" target="ABrIxDX-F--y4pFHkyQc-41">
          <mxGeometry relative="1" as="geometry" />
        </mxCell>
        <mxCell id="ABrIxDX-F--y4pFHkyQc-44" style="edgeStyle=orthogonalEdgeStyle;rounded=0;orthogonalLoop=1;jettySize=auto;html=1;exitX=0.5;exitY=1;exitDx=0;exitDy=0;entryX=0.5;entryY=0;entryDx=0;entryDy=0;" edge="1" parent="1" source="ABrIxDX-F--y4pFHkyQc-19" target="ABrIxDX-F--y4pFHkyQc-42">
          <mxGeometry relative="1" as="geometry" />
        </mxCell>
        <mxCell id="ABrIxDX-F--y4pFHkyQc-19" value="Esperando seleccion del voto" style="rounded=1;whiteSpace=wrap;html=1;" vertex="1" parent="1">
          <mxGeometry x="210" y="380" width="120" height="60" as="geometry" />
        </mxCell>
        <mxCell id="ABrIxDX-F--y4pFHkyQc-20" value="" style="endArrow=classic;html=1;rounded=0;exitX=0.5;exitY=0;exitDx=0;exitDy=0;" edge="1" target="ABrIxDX-F--y4pFHkyQc-21" parent="1" source="ABrIxDX-F--y4pFHkyQc-12">
          <mxGeometry width="50" height="50" relative="1" as="geometry">
            <mxPoint x="-162" y="125" as="sourcePoint" />
            <mxPoint x="-112" y="75" as="targetPoint" />
          </mxGeometry>
        </mxCell>
        <mxCell id="ABrIxDX-F--y4pFHkyQc-21" value="" style="ellipse;shadow=0;fillColor=default;gradientColor=none;gradientDirection=radial;" vertex="1" parent="1">
          <mxGeometry x="-160" y="40" width="30" height="30" as="geometry" />
        </mxCell>
        <mxCell id="ABrIxDX-F--y4pFHkyQc-22" value="" style="ellipse;fillColor=none;" vertex="1" parent="1">
          <mxGeometry x="-157.5" y="45" width="25" height="20" as="geometry" />
        </mxCell>
        <mxCell id="ABrIxDX-F--y4pFHkyQc-23" value="se lee la huella[huella invalida]/&lt;br&gt;se deshabilita el lector de huella &lt;br&gt;informando &quot;huella inexistente" style="text;html=1;align=center;verticalAlign=middle;resizable=0;points=[];autosize=1;strokeColor=none;fillColor=none;" vertex="1" parent="1">
          <mxGeometry x="-140" y="80" width="190" height="60" as="geometry" />
        </mxCell>
        <mxCell id="ABrIxDX-F--y4pFHkyQc-25" value="" style="endArrow=classic;html=1;rounded=0;exitX=0;exitY=0.5;exitDx=0;exitDy=0;" edge="1" target="ABrIxDX-F--y4pFHkyQc-26" parent="1" source="ABrIxDX-F--y4pFHkyQc-12">
          <mxGeometry width="50" height="50" relative="1" as="geometry">
            <mxPoint x="-340" y="215" as="sourcePoint" />
            <mxPoint x="-290" y="165" as="targetPoint" />
          </mxGeometry>
        </mxCell>
        <mxCell id="ABrIxDX-F--y4pFHkyQc-26" value="" style="ellipse;shadow=0;fillColor=default;gradientColor=none;gradientDirection=radial;" vertex="1" parent="1">
          <mxGeometry x="-530" y="175" width="30" height="30" as="geometry" />
        </mxCell>
        <mxCell id="ABrIxDX-F--y4pFHkyQc-27" value="" style="ellipse;fillColor=none;" vertex="1" parent="1">
          <mxGeometry x="-527.5" y="180" width="25" height="20" as="geometry" />
        </mxCell>
        <mxCell id="ABrIxDX-F--y4pFHkyQc-28" value="Se lee la huella[huella valida,alumno ya voto]/&lt;br&gt;se deshabilita el lector de huella&lt;br&gt;&amp;nbsp;informando &quot;el alumno ya voto&quot; cancela la operacion" style="text;html=1;align=center;verticalAlign=middle;resizable=0;points=[];autosize=1;strokeColor=none;fillColor=none;" vertex="1" parent="1">
          <mxGeometry x="-502.5" y="130" width="310" height="60" as="geometry" />
        </mxCell>
        <mxCell id="ABrIxDX-F--y4pFHkyQc-31" value="Se lee la huella[huella valida,alumno no voto]/&lt;br&gt;se deshabilita la opcion de huella,habilitar &lt;br&gt;pantalla mostrando las opciones de voto,&lt;br&gt;se incia el contador&amp;nbsp;" style="text;html=1;align=center;verticalAlign=middle;resizable=0;points=[];autosize=1;strokeColor=none;fillColor=none;" vertex="1" parent="1">
          <mxGeometry x="-132.5" y="345" width="270" height="70" as="geometry" />
        </mxCell>
        <mxCell id="ABrIxDX-F--y4pFHkyQc-32" value="" style="endArrow=classic;html=1;rounded=0;exitX=0.5;exitY=0;exitDx=0;exitDy=0;" edge="1" target="ABrIxDX-F--y4pFHkyQc-33" parent="1" source="ABrIxDX-F--y4pFHkyQc-7">
          <mxGeometry width="50" height="50" relative="1" as="geometry">
            <mxPoint x="677.5" y="110" as="sourcePoint" />
            <mxPoint x="727.5" y="60" as="targetPoint" />
          </mxGeometry>
        </mxCell>
        <mxCell id="ABrIxDX-F--y4pFHkyQc-33" value="" style="ellipse;shadow=0;fillColor=default;gradientColor=none;gradientDirection=radial;" vertex="1" parent="1">
          <mxGeometry x="695" y="40" width="30" height="30" as="geometry" />
        </mxCell>
        <mxCell id="ABrIxDX-F--y4pFHkyQc-34" value="" style="ellipse;fillColor=none;" vertex="1" parent="1">
          <mxGeometry x="697.5" y="45" width="25" height="20" as="geometry" />
        </mxCell>
        <mxCell id="ABrIxDX-F--y4pFHkyQc-35" value="se ingresa el legajo[legajo invalid]/&lt;br&gt;se deshabilita el teclado,&lt;br&gt;se informa el error,&lt;br&gt;se cancela la operacion" style="text;html=1;align=center;verticalAlign=middle;resizable=0;points=[];autosize=1;strokeColor=none;fillColor=none;" vertex="1" parent="1">
          <mxGeometry x="710" y="80" width="210" height="70" as="geometry" />
        </mxCell>
        <mxCell id="ABrIxDX-F--y4pFHkyQc-36" value="" style="endArrow=classic;html=1;rounded=0;exitX=1;exitY=0.5;exitDx=0;exitDy=0;" edge="1" target="ABrIxDX-F--y4pFHkyQc-37" parent="1" source="ABrIxDX-F--y4pFHkyQc-7">
          <mxGeometry width="50" height="50" relative="1" as="geometry">
            <mxPoint x="880" y="235" as="sourcePoint" />
            <mxPoint x="930" y="185" as="targetPoint" />
          </mxGeometry>
        </mxCell>
        <mxCell id="ABrIxDX-F--y4pFHkyQc-37" value="" style="ellipse;shadow=0;fillColor=default;gradientColor=none;gradientDirection=radial;" vertex="1" parent="1">
          <mxGeometry x="1090" y="175" width="30" height="30" as="geometry" />
        </mxCell>
        <mxCell id="ABrIxDX-F--y4pFHkyQc-38" value="" style="ellipse;fillColor=none;" vertex="1" parent="1">
          <mxGeometry x="1092.5" y="180" width="25" height="20" as="geometry" />
        </mxCell>
        <mxCell id="ABrIxDX-F--y4pFHkyQc-39" value="Se ingresa el legajo[legajo valido,alumno ya voto]/&lt;br&gt;&amp;nbsp;se dehabilita el teclado&lt;br&gt;,se informa que el alumno ya voto ,&lt;br&gt;se cancela la operacion" style="text;html=1;align=center;verticalAlign=middle;resizable=0;points=[];autosize=1;strokeColor=none;fillColor=none;" vertex="1" parent="1">
          <mxGeometry x="770" y="190" width="290" height="70" as="geometry" />
        </mxCell>
        <mxCell id="ABrIxDX-F--y4pFHkyQc-40" value="Se ingresa el legajo[legajo valido,alumno &lt;br&gt;no voto]/se deshabilita el teclado,&lt;br&gt;se abre la pantalla mostrando las opciones de voto,&lt;br&gt;se incicia el contador" style="text;html=1;align=center;verticalAlign=middle;resizable=0;points=[];autosize=1;strokeColor=none;fillColor=none;" vertex="1" parent="1">
          <mxGeometry x="390" y="345" width="300" height="70" as="geometry" />
        </mxCell>
        <mxCell id="ABrIxDX-F--y4pFHkyQc-47" style="edgeStyle=orthogonalEdgeStyle;rounded=0;orthogonalLoop=1;jettySize=auto;html=1;exitX=0.5;exitY=1;exitDx=0;exitDy=0;entryX=0;entryY=0.5;entryDx=0;entryDy=0;" edge="1" parent="1" source="ABrIxDX-F--y4pFHkyQc-41" target="ABrIxDX-F--y4pFHkyQc-45">
          <mxGeometry relative="1" as="geometry" />
        </mxCell>
        <mxCell id="ABrIxDX-F--y4pFHkyQc-41" value="Esperando seleccion de una agrupacion" style="rounded=1;whiteSpace=wrap;html=1;" vertex="1" parent="1">
          <mxGeometry x="-140" y="610" width="120" height="60" as="geometry" />
        </mxCell>
        <mxCell id="ABrIxDX-F--y4pFHkyQc-46" style="edgeStyle=orthogonalEdgeStyle;rounded=0;orthogonalLoop=1;jettySize=auto;html=1;exitX=0.5;exitY=1;exitDx=0;exitDy=0;entryX=1;entryY=0.5;entryDx=0;entryDy=0;" edge="1" parent="1" source="ABrIxDX-F--y4pFHkyQc-42" target="ABrIxDX-F--y4pFHkyQc-45">
          <mxGeometry relative="1" as="geometry" />
        </mxCell>
        <mxCell id="ABrIxDX-F--y4pFHkyQc-42" value="esperando la seleccion de dos agrupaciones" style="rounded=1;whiteSpace=wrap;html=1;" vertex="1" parent="1">
          <mxGeometry x="540" y="610" width="120" height="60" as="geometry" />
        </mxCell>
        <mxCell id="ABrIxDX-F--y4pFHkyQc-45" value="Esperando confirmacion" style="rounded=1;whiteSpace=wrap;html=1;" vertex="1" parent="1">
          <mxGeometry x="210" y="780" width="120" height="60" as="geometry" />
        </mxCell>
        <mxCell id="ABrIxDX-F--y4pFHkyQc-48" value="Se selecciona &quot;cortar boleta&quot;/pausar y reiniciar contador,&lt;br&gt;ocultar opciones,mostrar listado de partido" style="text;html=1;align=center;verticalAlign=middle;resizable=0;points=[];autosize=1;strokeColor=none;fillColor=none;" vertex="1" parent="1">
          <mxGeometry x="270" y="480" width="320" height="40" as="geometry" />
        </mxCell>
        <mxCell id="ABrIxDX-F--y4pFHkyQc-50" value="Se seleccion &quot;votarlista completa&quot;/se pausa y reinicia el contador,&lt;br&gt;ocultar opciones,mostrar listado de partidos" style="text;html=1;align=center;verticalAlign=middle;resizable=0;points=[];autosize=1;strokeColor=none;fillColor=none;" vertex="1" parent="1">
          <mxGeometry x="-100" y="480" width="370" height="40" as="geometry" />
        </mxCell>
        <mxCell id="ABrIxDX-F--y4pFHkyQc-51" value="" style="curved=1;endArrow=classic;html=1;rounded=0;exitX=0.75;exitY=0;exitDx=0;exitDy=0;entryX=0.354;entryY=-0.035;entryDx=0;entryDy=0;entryPerimeter=0;" edge="1" parent="1" source="ABrIxDX-F--y4pFHkyQc-19" target="ABrIxDX-F--y4pFHkyQc-19">
          <mxGeometry width="50" height="50" relative="1" as="geometry">
            <mxPoint x="260" y="330" as="sourcePoint" />
            <mxPoint x="170" y="280" as="targetPoint" />
            <Array as="points">
              <mxPoint x="310" y="330" />
              <mxPoint x="260" y="280" />
            </Array>
          </mxGeometry>
        </mxCell>
        <mxCell id="ABrIxDX-F--y4pFHkyQc-52" value="Pasaron &amp;gt;30 segundos sin eleccion/&lt;br&gt;Mostrar cartel hasta que se seleccione &lt;br&gt;una opcion,pausar contador" style="text;html=1;align=center;verticalAlign=middle;resizable=0;points=[];autosize=1;strokeColor=none;fillColor=none;" vertex="1" parent="1">
          <mxGeometry x="250" y="250" width="230" height="60" as="geometry" />
        </mxCell>
        <mxCell id="ABrIxDX-F--y4pFHkyQc-53" value="Se selecciono agrupacion/&lt;br&gt;ocultar listado,mostrar opciones &lt;br&gt;elegidas,mostrar botones" style="text;html=1;align=center;verticalAlign=middle;resizable=0;points=[];autosize=1;strokeColor=none;fillColor=none;" vertex="1" parent="1">
          <mxGeometry x="-60" y="750" width="190" height="60" as="geometry" />
        </mxCell>
        <mxCell id="ABrIxDX-F--y4pFHkyQc-54" value="Se selecciono agrupacion/&lt;br&gt;ocultar listado,mostrar opciones&lt;br&gt;elegidas,mostrar botones" style="text;html=1;align=center;verticalAlign=middle;resizable=0;points=[];autosize=1;strokeColor=none;fillColor=none;" vertex="1" parent="1">
          <mxGeometry x="390" y="760" width="190" height="60" as="geometry" />
        </mxCell>
        <mxCell id="ABrIxDX-F--y4pFHkyQc-55" value="" style="endArrow=classic;html=1;rounded=0;exitX=1;exitY=0.75;exitDx=0;exitDy=0;" edge="1" target="ABrIxDX-F--y4pFHkyQc-56" parent="1" source="ABrIxDX-F--y4pFHkyQc-45">
          <mxGeometry width="50" height="50" relative="1" as="geometry">
            <mxPoint x="370" y="965" as="sourcePoint" />
            <mxPoint x="420" y="915" as="targetPoint" />
          </mxGeometry>
        </mxCell>
        <mxCell id="ABrIxDX-F--y4pFHkyQc-56" value="" style="ellipse;shadow=0;fillColor=default;gradientColor=none;gradientDirection=radial;" vertex="1" parent="1">
          <mxGeometry x="440" y="970" width="30" height="30" as="geometry" />
        </mxCell>
        <mxCell id="ABrIxDX-F--y4pFHkyQc-57" value="" style="ellipse;fillColor=none;" vertex="1" parent="1">
          <mxGeometry x="442.5" y="975" width="25" height="20" as="geometry" />
        </mxCell>
        <mxCell id="ABrIxDX-F--y4pFHkyQc-58" value="se selecciono &quot;cancelar/mostrar mensaje &lt;br&gt;&quot;cancelacion&quot;,finalizar session" style="text;html=1;align=center;verticalAlign=middle;resizable=0;points=[];autosize=1;strokeColor=none;fillColor=none;" vertex="1" parent="1">
          <mxGeometry x="365" y="870" width="240" height="40" as="geometry" />
        </mxCell>
        <mxCell id="ABrIxDX-F--y4pFHkyQc-60" value="" style="endArrow=classic;html=1;rounded=0;exitX=0.5;exitY=1;exitDx=0;exitDy=0;" edge="1" target="ABrIxDX-F--y4pFHkyQc-61" parent="1" source="ABrIxDX-F--y4pFHkyQc-45">
          <mxGeometry width="50" height="50" relative="1" as="geometry">
            <mxPoint x="210" y="1018" as="sourcePoint" />
            <mxPoint x="260" y="968" as="targetPoint" />
          </mxGeometry>
        </mxCell>
        <mxCell id="ABrIxDX-F--y4pFHkyQc-61" value="" style="ellipse;shadow=0;fillColor=default;gradientColor=none;gradientDirection=radial;" vertex="1" parent="1">
          <mxGeometry x="255" y="970" width="30" height="30" as="geometry" />
        </mxCell>
        <mxCell id="ABrIxDX-F--y4pFHkyQc-62" value="" style="ellipse;fillColor=none;" vertex="1" parent="1">
          <mxGeometry x="257.5" y="975" width="25" height="20" as="geometry" />
        </mxCell>
        <mxCell id="ABrIxDX-F--y4pFHkyQc-63" value="Se selecciona el boton &quot;confirmar&quot;/enviar a imprimir&lt;br&gt;&amp;nbsp;el voto mostar mensaje de exito,enviar mensaje&lt;br&gt;&amp;nbsp;a la mesa de&amp;nbsp;autoridades,finalizar session" style="text;html=1;align=center;verticalAlign=middle;resizable=0;points=[];autosize=1;strokeColor=none;fillColor=none;" vertex="1" parent="1">
          <mxGeometry x="-20" y="860" width="300" height="60" as="geometry" />
        </mxCell>
      </root>
    </mxGraphModel>
  </diagram>
</mxfile>
